<?xml version="1.0" encoding="UTF-8"?>
<svg version="1.1" xmlns="http://www.w3.org/2000/svg" width="500" height="500">
<path d="M0 0 C1.2271875 0.00902344 2.454375 0.01804687 3.71875 0.02734375 C5.09546875 0.04474609 5.09546875 0.04474609 6.5 0.0625 C7.99891356 3.06032711 7.62993922 5.81256789 7.6328125 9.15234375 C7.63376923 9.85267227 7.63472595 10.55300079 7.63571167 11.27455139 C7.63639246 12.7565215 7.63454519 14.2384946 7.63037109 15.72045898 C7.62502937 17.98753581 7.63031529 20.25441379 7.63671875 22.52148438 C7.63605779 23.96093794 7.63477627 25.40039138 7.6328125 26.83984375 C7.63168457 28.15202881 7.63055664 29.46421387 7.62939453 30.81616211 C7.5 34.0625 7.5 34.0625 6.5 37.0625 C5.60244995 37.20498169 5.60244995 37.20498169 4.68676758 37.3503418 C-19.15928524 41.06150281 -19.15928524 41.06150281 -38.75 54.375 C-43.6108093 61.83981429 -45.63735027 68.78025353 -45.68945312 77.62231445 C-45.69774643 78.37908981 -45.70603973 79.13586517 -45.71458435 79.91557312 C-45.73196176 81.55789941 -45.74713486 83.20025016 -45.76036072 84.84261513 C-45.78149196 87.45570199 -45.80851561 90.0686704 -45.83703613 92.6816864 C-45.89667428 98.24607743 -45.94870512 103.81052673 -46 109.375 C-46.05959023 115.79022985 -46.12240637 122.20540397 -46.19187927 128.6205349 C-46.21804706 131.16980037 -46.23911733 133.71907258 -46.2598877 136.26838684 C-46.68001097 179.85269598 -46.68001097 179.85269598 -62.125 196.3125 C-71.86944005 205.47604944 -84.20623441 211.24677473 -97.37890625 213.5703125 C-98.42884766 213.81394531 -98.42884766 213.81394531 -99.5 214.0625 C-99.83 214.7225 -100.16 215.3825 -100.5 216.0625 C-99.46875 216.124375 -98.4375 216.18625 -97.375 216.25 C-82.17498747 218.19042713 -66.95875804 226.49583208 -57.5234375 238.59765625 C-49.61884944 250.28635561 -47.45759994 262.37053466 -46.95703125 276.19140625 C-46.91487991 277.3176088 -46.87272858 278.44381134 -46.82929993 279.60414124 C-46.50038886 289.24501993 -46.39170165 298.88176781 -46.32421875 308.52734375 C-46.31225089 310.04774083 -46.30013473 311.56813676 -46.28787231 313.08853149 C-46.18904741 325.6701643 -46.18904741 325.6701643 -46.17407227 331.75366211 C-46.16393056 335.62886628 -46.13451669 339.5035244 -46.09275246 343.37851143 C-46.08059459 344.82911605 -46.07529275 346.27979777 -46.07755089 347.73045158 C-46.09198154 359.97754054 -44.36015986 371.00278699 -35.5 380.0625 C-25.74744709 388.70867086 -12.57635537 391.40778342 0.04101562 392.43066406 C5.31286791 392.87536791 5.31286791 392.87536791 7.5 395.0625 C7.68727088 397.54840326 7.75579285 399.92076122 7.73046875 402.40625 C7.73001053 403.13114624 7.72955231 403.85604248 7.7290802 404.60290527 C7.72605799 406.13616573 7.71817258 407.66942312 7.70581055 409.20263672 C7.68757239 411.55317022 7.68530074 413.90330943 7.68554688 416.25390625 C7.68063091 417.74219092 7.67480225 419.2304729 7.66796875 420.71875 C7.66685593 421.42398804 7.6657431 422.12922607 7.66459656 422.85583496 C7.61607536 427.83034928 7.61607536 427.83034928 6.5 430.0625 C-18.66266739 431.51419235 -47.80408942 425.53782723 -67.48828125 408.890625 C-68.48408203 407.98570312 -68.48408203 407.98570312 -69.5 407.0625 C-70.25667969 406.39734375 -71.01335937 405.7321875 -71.79296875 405.046875 C-83.82727285 393.8390474 -90.79426144 377.47945806 -91.59881401 361.04390907 C-91.64759841 358.79164701 -91.66611459 356.54110769 -91.67358398 354.28833008 C-91.680271 353.43851562 -91.68695801 352.58870117 -91.69384766 351.71313477 C-91.70783361 349.87768255 -91.71974783 348.04221361 -91.72979546 346.20673561 C-91.7463219 343.29178934 -91.76956544 340.37696601 -91.79469299 337.46208191 C-91.86513636 329.17750268 -91.92538893 320.89287311 -91.97680664 312.6081543 C-92.00879607 307.52956833 -92.0501201 302.45112511 -92.09700203 297.37265587 C-92.11290229 295.44837727 -92.12527827 293.52406591 -92.13390923 291.59974098 C-91.89243188 268.0106619 -91.89243188 268.0106619 -102.66015625 247.70703125 C-114.40355514 237.52941888 -128.26042431 235.99227134 -143.11914062 234.37207031 C-150.09783121 233.46466879 -150.09783121 233.46466879 -151.5 232.0625 C-151.60091475 229.48060554 -151.63971499 226.926035 -151.6328125 224.34375 C-151.63376923 223.57067505 -151.63472595 222.7976001 -151.63571167 222.00109863 C-151.63639341 220.36352456 -151.63453957 218.72594781 -151.63037109 217.08837891 C-151.62502271 214.57318079 -151.63031626 212.05816127 -151.63671875 209.54296875 C-151.63605797 207.95572877 -151.6347768 206.3684889 -151.6328125 204.78125 C-151.63483673 204.02396606 -151.63686096 203.26668213 -151.63894653 202.4864502 C-151.61495132 197.17745132 -151.61495132 197.17745132 -150.5 196.0625 C-148.47421922 195.84803055 -146.44749247 195.64023522 -144.41772461 195.4675293 C-129.7230425 194.21040383 -112.43594909 191.99844909 -101.5 181.0625 C-93.52339899 170.57075453 -92.35965754 158.98322978 -92.34228516 146.20068359 C-92.33720444 145.36514954 -92.33212372 144.52961548 -92.32688904 143.66876221 C-92.31626356 141.86990752 -92.30761336 140.07104026 -92.30076981 138.27216721 C-92.28885387 135.41083948 -92.2693691 132.54965426 -92.24765015 129.68838501 C-92.18646604 121.55809372 -92.1321588 113.42781968 -92.09863281 105.29736328 C-92.07751306 100.30717859 -92.0420773 95.31725977 -91.99787521 90.32722855 C-91.98385524 88.44171939 -91.975025 86.55616326 -91.97182083 84.67060471 C-91.93254793 63.76925106 -89.19447839 45.76178627 -75.5 29.0625 C-74.99082031 28.43859375 -74.48164062 27.8146875 -73.95703125 27.171875 C-56.16895575 7.60041918 -25.58437059 -0.24600356 0 0 Z " fill="#F755A7" transform="translate(157.5,22.9375)"/>
<path d="M0 0 C26.4864608 0.31456604 55.61607686 7.1135425 74.79296875 26.49609375 C88.1361161 41.08046411 93.44464585 58.75333328 93.47021484 78.22949219 C93.47529556 79.08920624 93.48037628 79.94892029 93.48561096 80.83468628 C93.49625135 82.68867755 93.50489593 84.54268116 93.51173019 86.39669037 C93.52361613 89.34112525 93.54309307 92.28541975 93.56484985 95.22979736 C93.62614063 103.5971605 93.68041519 111.9645066 93.71386719 120.33203125 C93.73492663 125.4636917 93.77031505 130.59509063 93.81462479 135.72660065 C93.82869067 137.67041173 93.83748571 139.61426901 93.84067917 141.55812836 C93.8673073 164.08982426 93.8673073 164.08982426 105.09375 183.02734375 C117.57701119 193.08046188 133.32534065 195.230818 148.8359375 196.0390625 C151.3125 196.25 151.3125 196.25 153.3125 197.25 C153.3125 209.13 153.3125 221.01 153.3125 233.25 C150.0125 233.641875 146.7125 234.03375 143.3125 234.4375 C129.00281253 236.31881955 112.44318467 238.96495886 102.4140625 250.41796875 C96.16626387 259.27155656 94.16841037 268.32259321 94.15478516 279.02490234 C94.14970444 279.89886658 94.14462372 280.77283081 94.13938904 281.67327881 C94.12870679 283.56824118 94.12007824 285.46321601 94.11326981 287.35819626 C94.10142691 290.37042428 94.08195618 293.38251237 94.06015015 296.39468384 C93.99874489 304.95854942 93.94470768 313.52240227 93.91113281 322.08642578 C93.89002143 327.33134677 93.85458192 332.57601446 93.81037521 337.82078934 C93.79633715 339.80677912 93.78752077 341.79281374 93.78432083 343.77885056 C93.74386391 366.5012507 90.44053156 387.54302094 74.25 404.875 C54.04069964 423.99005736 25.24989857 430.55816459 -1.8359375 430.41796875 C-4.6875 430.25 -4.6875 430.25 -5.6875 429.25 C-5.78841475 426.66810554 -5.82721499 424.113535 -5.8203125 421.53125 C-5.82126923 420.75817505 -5.82222595 419.9851001 -5.82321167 419.18859863 C-5.82389341 417.55102456 -5.82203957 415.91344781 -5.81787109 414.27587891 C-5.81252271 411.76068079 -5.81781626 409.24566127 -5.82421875 406.73046875 C-5.82355797 405.14322877 -5.8222768 403.5559889 -5.8203125 401.96875 C-5.82233673 401.21146606 -5.82436096 400.45418213 -5.82644653 399.6739502 C-5.80245132 394.36495132 -5.80245132 394.36495132 -4.6875 393.25 C-3.35599143 393.01353601 -2.01487188 392.83058757 -0.671875 392.671875 C14.66795853 390.71786003 28.7702578 387.7922422 40.125 376.4375 C44.68584391 369.79169887 46.5641882 364.03064729 47.421875 355.97265625 C47.50743149 355.17958572 47.59298798 354.3865152 47.68113708 353.56941223 C48.41199854 346.24648128 48.51276308 339.00003657 48.40542603 331.6479187 C48.35105258 327.69774491 48.34150832 323.74736595 48.328125 319.796875 C48.32480667 318.96071152 48.32148834 318.12454803 48.31806946 317.26304626 C48.28992525 307.56140253 48.39816995 297.86271506 48.57394409 288.16275024 C48.60762104 286.20024793 48.63615691 284.23764975 48.65921021 282.2749939 C48.88187674 263.84622643 50.98243942 247.18368596 64.3125 233.25 C74.07581315 224.82496031 89.01735801 216.25 102.3125 216.25 C102.3125 215.59 102.3125 214.93 102.3125 214.25 C101.24 214.1675 100.1675 214.085 99.0625 214 C83.54091661 212.00163036 68.92283114 203.95973283 59.2734375 191.6484375 C51.79415515 180.60456101 49.18417496 168.91555566 49.13891602 155.7512207 C49.132229 154.93066696 49.12554199 154.11011322 49.11865234 153.26469421 C49.10467048 151.49308525 49.09275501 149.72145901 49.08270454 147.94982338 C49.0661707 145.13568989 49.04292694 142.32168335 49.01780701 139.50761414 C48.9473844 131.50978021 48.88712314 123.51189427 48.83569336 115.51391602 C48.80369252 110.61039123 48.76236592 105.70701395 48.71549797 100.80360985 C48.6996045 98.94631823 48.68722549 97.08899276 48.67859077 95.23165321 C48.58874953 73.12658635 48.58874953 73.12658635 40.1875 53 C28.17706807 41.51176076 12.98750981 39.44185225 -2.82080078 37.57543945 C-4.6875 37.25 -4.6875 37.25 -5.6875 36.25 C-5.78841475 33.66810554 -5.82721499 31.113535 -5.8203125 28.53125 C-5.82126923 27.75817505 -5.82222595 26.9851001 -5.82321167 26.18859863 C-5.82389341 24.55102456 -5.82203957 22.91344781 -5.81787109 21.27587891 C-5.81252271 18.76068079 -5.81781626 16.24566127 -5.82421875 13.73046875 C-5.82355797 12.14322877 -5.8222768 10.5559889 -5.8203125 8.96875 C-5.82233673 8.21146606 -5.82436096 7.45418213 -5.82644653 6.6739502 C-5.79673061 0.09923077 -5.79673061 0.09923077 0 0 Z " fill="#F756A7" transform="translate(333.6875,22.75)"/>
<path d="M0 0 C33 0 66 0 100 0 C100 90.09 100 180.18 100 273 C92.1230003 274.12528567 92.1230003 274.12528567 87.90673828 274.12939453 C86.96951935 274.13254669 86.03230042 274.13569885 85.06668091 274.13894653 C84.07787933 274.1369223 83.08907776 274.13489807 82.0703125 274.1328125 C81.03937469 274.13376923 80.00843689 274.13472595 78.94625854 274.13571167 C76.77960143 274.13638937 74.61294223 274.13456378 72.44628906 274.13037109 C69.11518877 274.12498413 65.78422131 274.13034673 62.453125 274.13671875 C60.34635387 274.13605854 58.23958282 274.13477856 56.1328125 274.1328125 C54.63139206 274.13584885 54.63139206 274.13584885 53.09963989 274.13894653 C52.18133392 274.13579437 51.26302795 274.13264221 50.31689453 274.12939453 C49.50527863 274.12859894 48.69366272 274.12780334 47.85745239 274.12698364 C46 274 46 274 45 273 C44.75547822 270.2300228 44.57599015 267.48440547 44.44459534 264.70829773 C44.40244103 263.85478782 44.36028672 263.00127792 44.31685501 262.12190408 C43.88487167 252.63676092 43.86684929 243.16025044 43.88647461 233.66723633 C43.88675757 231.7137197 43.88659662 229.76020297 43.8860321 227.8066864 C43.88574839 222.5682996 43.89157549 217.32993629 43.89860606 212.09155488 C43.90491125 206.59299483 43.90544901 201.09443408 43.90663147 195.59587097 C43.90972385 185.21253699 43.91790868 174.8292137 43.92798096 164.44588441 C43.93920754 152.61253858 43.94466895 140.77919222 43.94967639 128.94584239 C43.96009332 104.63055569 43.97765171 80.31527845 44 56 C42.05395874 56.00785522 42.05395874 56.00785522 40.06860352 56.01586914 C35.27352585 56.03391469 30.4784512 56.04543037 25.68334961 56.05493164 C23.60456844 56.05997288 21.52579084 56.06680574 19.44702148 56.07543945 C16.46597414 56.08751422 13.48497351 56.09323024 10.50390625 56.09765625 C9.10078941 56.10539818 9.10078941 56.10539818 7.66932678 56.11329651 C6.37810158 56.11340981 6.37810158 56.11340981 5.06079102 56.11352539 C4.29912125 56.115746 3.53745148 56.11796661 2.75270081 56.12025452 C1 56 1 56 0 55 C-0.0935919 53.28134591 -0.11744611 51.55884256 -0.11352539 49.83764648 C-0.11340454 48.72111694 -0.11328369 47.6045874 -0.11315918 46.45422363 C-0.10804321 45.27179077 -0.10292725 44.08935791 -0.09765625 42.87109375 C-0.09664917 41.79089966 -0.09564209 40.71070557 -0.09460449 39.59777832 C-0.08935374 35.54434149 -0.07539263 31.49091973 -0.0625 27.4375 C-0.041875 18.383125 -0.02125 9.32875 0 0 Z " fill="#F4215A" transform="translate(155,111)"/>
<path d="M0 0 C3.80970014 3.65210463 7.05228403 7.49639711 10.25 11.6875 C14.29148077 16.90968419 18.47883893 21.91089073 22.95703125 26.76953125 C24.84038998 28.82574126 26.64082631 30.93078226 28.4375 33.0625 C33.95362899 39.401548 40.42042679 44.80190302 47 50 C46.48474397 55.28137429 44.74522883 58.57221156 42 63 C29.91265105 61.57031357 17.27656957 44.91966592 10 36 C9.01 35.505 9.01 35.505 8 35 C8 84.5 8 134 8 185 C5.35541621 186.32229189 3.32238699 186.09677194 0.375 186.0625 C-0.62789063 186.05347656 -1.63078125 186.04445313 -2.6640625 186.03515625 C-3.82035156 186.01775391 -3.82035156 186.01775391 -5 186 C-7.06464204 182.58864736 -7.25808482 179.93154477 -7.2784729 175.97625732 C-7.28963638 174.74229218 -7.30079987 173.50832703 -7.31230164 172.23696899 C-7.3146665 170.87249786 -7.31684217 169.50802639 -7.31884766 168.14355469 C-7.32814732 166.7045536 -7.33831605 165.2655579 -7.34928894 163.8265686 C-7.37659883 159.92198276 -7.39174125 156.01743301 -7.40471697 152.11277676 C-7.42034319 148.03146154 -7.44713503 143.95022008 -7.4727478 139.86895752 C-7.51954461 132.1413544 -7.55628435 124.41373741 -7.58942068 116.68606496 C-7.62763569 107.88802874 -7.67704747 99.09006659 -7.72740483 90.2920928 C-7.8307381 72.19478273 -7.91999397 54.09742747 -8 36 C-8.40119049 36.43311996 -8.80238098 36.86623993 -9.21572876 37.31248474 C-11.05099947 39.29191394 -12.88875643 41.2690184 -14.7265625 43.24609375 C-15.35763916 43.92748413 -15.98871582 44.60887451 -16.63891602 45.31091309 C-23.20810804 52.37075905 -30.20163449 58.33788887 -38 64 C-41.69208738 60.70349342 -43.86616894 57.42572369 -46 53 C-45.80932379 50.26697425 -45.30664679 49.28091906 -43.27734375 47.421875 C-42.11912109 46.59429687 -42.11912109 46.59429687 -40.9375 45.75 C-28.21391312 35.94299464 -17.4717169 23.91527725 -8 11 C-7.59217285 10.44812012 -7.1843457 9.89624023 -6.76416016 9.32763672 C-4.48312394 6.23699328 -2.22843786 3.1287523 0 0 Z " fill="#E32AF7" transform="translate(326,136)"/>
<path d="M0 0 C0.66 0.33 1.32 0.66 2 1 C-10.48519362 14.81776765 -10.48519362 14.81776765 -17 20 C-17.66 19.67 -18.32 19.34 -19 19 C-12.73 12.73 -6.46 6.46 0 0 Z " fill="#E51BF8" transform="translate(314,173)"/>
</svg>
