<?xml version="1.0" encoding="UTF-8"?>
<svg version="1.1" xmlns="http://www.w3.org/2000/svg" width="500" height="500">
<path d="M0 0 C0 9.57 0 19.14 0 29 C-2.76375 29.4125 -5.5275 29.825 -8.375 30.25 C-19.25007789 32.01900228 -28.47558292 34.39818371 -36 43 C-39.85322603 48.97529254 -41.1146593 54.32270831 -41.17358398 61.39819336 C-41.18707382 62.69732162 -41.20056366 63.99644989 -41.21446228 65.33494568 C-41.21952223 66.02753416 -41.22458218 66.72012264 -41.22979546 67.43369865 C-41.24630502 69.61779295 -41.26955308 71.801722 -41.29469299 73.98573303 C-41.36514563 80.1949119 -41.42511884 86.40416264 -41.47680664 92.61352539 C-41.50894805 96.41784767 -41.55031774 100.22198527 -41.59700203 104.02615547 C-41.61282838 105.46395034 -41.62523697 106.90178767 -41.63390923 108.33964348 C-41.73850424 125.45240425 -42.70640581 140.62020089 -55.02734375 153.44921875 C-62.98607123 160.27845534 -72.82740282 163.82015775 -83 166 C-79.79968497 167.33676875 -76.66762223 168.38487757 -73.3125 169.25 C-62.39403247 172.51093904 -53.33693699 179.3915047 -47.1875 189 C-41.94140706 199.59627975 -41.56269663 212.37771167 -41.58930969 223.97935104 C-41.59390523 226.15958035 -41.57947383 228.33904652 -41.56091309 230.51919556 C-41.51855416 235.92067867 -41.50690191 241.3221348 -41.49468994 246.72375488 C-41.48308909 251.32462996 -41.45936625 255.92514369 -41.41999817 260.52586746 C-41.40660827 262.65399529 -41.41056098 264.78160754 -41.41540527 266.90975952 C-41.33362688 277.49704822 -40.5172714 286.46818462 -32.9375 294.31640625 C-24.08616884 302.00778474 -11.03790025 302.99310905 0 305 C0 314.24 0 323.48 0 333 C-23.12143777 333 -45.42669776 328.6567845 -63 312.625 C-71.74042399 303.08999202 -76.07229549 289.93540339 -76.17358398 277.19702148 C-76.180271 276.53281693 -76.18695801 275.86861237 -76.19384766 275.1842804 C-76.20784626 273.74767791 -76.2197566 272.31105387 -76.22979546 270.87441826 C-76.24632076 268.58970778 -76.26956693 266.30515423 -76.29469299 264.02052307 C-76.36511923 257.52637697 -76.42523222 251.03216443 -76.47680664 244.5378418 C-76.50888919 240.55731099 -76.55024052 236.57695885 -76.59700203 232.59657478 C-76.61285562 231.09096605 -76.62525228 229.58531628 -76.63390923 228.07964897 C-76.49355949 208.76143205 -76.49355949 208.76143205 -85 192 C-96.03833164 182.99805023 -109.40240725 182.31916945 -123 181 C-123 171.43 -123 161.86 -123 152 C-119.41125 151.5978125 -119.41125 151.5978125 -115.75 151.1875 C-103.5970711 149.69158358 -90.47777397 147.91800146 -82.0625 138 C-76.46840142 128.56917041 -76.57226307 116.42393589 -76.61987495 105.79878235 C-76.62918699 103.52520577 -76.61854025 101.25241945 -76.60325623 98.97888184 C-76.56369524 92.52645704 -76.56194613 86.07410828 -76.56420898 79.62158203 C-76.5642606 75.64355857 -76.54484973 71.66596858 -76.51487541 67.68806458 C-76.50424047 65.4757751 -76.5160594 63.26438209 -76.52870178 61.05212402 C-76.4883513 44.9582795 -72.22896511 30.8978994 -61 19 C-43.4056668 4.61751823 -22.29849114 0 0 0 Z " fill="#F458A6" transform="translate(125,72)"/>
<path d="M0 0 C24.93750552 1.20665349 47.19995076 5.14356801 65 24 C73.43127543 33.92113936 76.08934251 46.37422367 76.15771484 59.13769531 C76.16279556 59.81355179 76.16787628 60.48940826 76.17311096 61.18574524 C76.18374039 62.6414184 76.19238911 64.09710714 76.19923019 65.55280304 C76.21113654 67.86680781 76.23061837 70.18063559 76.25234985 72.49456787 C76.31357001 79.06972253 76.36787474 85.64485551 76.40136719 92.22021484 C76.42246176 96.25498269 76.45787694 100.28942011 76.50212479 104.3239975 C76.5161635 105.8499637 76.5249794 107.37598826 76.52817917 108.90201569 C76.55366684 119.89425476 76.65279722 131.14013782 84 140 C93.66182972 149.1250614 106.93023305 151.08516988 119.734375 151.7890625 C122 152 122 152 123 153 C123.09983058 154.98757028 123.13080753 156.9786752 123.1328125 158.96875 C123.13410156 160.17917969 123.13539063 161.38960937 123.13671875 162.63671875 C123.13285156 163.91160156 123.12898438 165.18648437 123.125 166.5 C123.12886719 167.77488281 123.13273437 169.04976562 123.13671875 170.36328125 C123.13542969 171.57371094 123.13414062 172.78414062 123.1328125 174.03125 C123.13168457 175.15080078 123.13055664 176.27035156 123.12939453 177.42382812 C123 180 123 180 122 181 C120.66849143 181.23646399 119.32737188 181.41941243 117.984375 181.578125 C98.77058904 183.74142479 98.77058904 183.74142479 83 194 C77.01621778 203.2858694 76.71561547 212.95767097 76.72560501 223.69090271 C76.72658188 226.01484988 76.71348927 228.33834889 76.69662476 230.66223145 C76.65072632 237.26501961 76.62580468 243.86776061 76.61914062 250.47070312 C76.61406392 254.52613376 76.58950521 258.58109688 76.55381393 262.6363678 C76.54415354 264.16379459 76.54160685 265.69128687 76.54698563 267.21873474 C76.5956759 281.73544494 74.94654912 296.00643777 66 308 C65.48695313 308.70511719 64.97390625 309.41023438 64.4453125 310.13671875 C54.14131875 323.07833769 36.76195192 329.13807377 21 332 C20.29617188 332.13148438 19.59234375 332.26296875 18.8671875 332.3984375 C12.56170781 333.37459963 6.45516395 333 0 333 C0 323.76 0 314.52 0 305 C4.4240625 304.13375 4.4240625 304.13375 8.9375 303.25 C15.66156387 301.86541667 22.0171003 300.50314522 28 297 C28.6290625 296.66613281 29.258125 296.33226562 29.90625 295.98828125 C35.36686675 292.69108681 37.7849743 287.85791922 40 282 C40.96813019 278.05176196 41.14090344 274.33229138 41.17358398 270.27294922 C41.180271 269.61689194 41.18695801 268.96083466 41.19384766 268.28489685 C41.20784415 266.86629931 41.21975514 265.44767997 41.22979546 264.02904892 C41.24631848 261.77401632 41.26956373 259.51914286 41.29469299 257.26419067 C41.36513149 250.85459459 41.42528085 244.44493175 41.47680664 238.03515625 C41.50885881 234.10649883 41.55020158 230.17802357 41.59700203 226.24951553 C41.61287119 224.76261847 41.625261 223.27567958 41.63390923 221.78872299 C41.73388903 204.83443999 43.55267808 191.84508761 55.63671875 179.1875 C63.29659477 172.09736683 73.19900307 169.82605433 83 167 C82.1440625 166.71898437 81.288125 166.43796875 80.40625 166.1484375 C63.85123028 160.56681388 63.85123028 160.56681388 58 156 C56.989375 155.236875 55.97875 154.47375 54.9375 153.6875 C46.45982282 145.93132726 43.38445648 136.26763895 42 125 C41.90556627 122.6780012 41.8550769 120.35391237 41.84228516 118.0300293 C41.83720444 117.37207367 41.83212372 116.71411804 41.82688904 116.03622437 C41.81626327 114.61983719 41.80761317 113.20343404 41.80076981 111.78702354 C41.78886189 109.5363004 41.76938047 107.28575911 41.74765015 105.03511047 C41.68642984 98.64008734 41.63209625 92.24508729 41.59863281 85.84985352 C41.57755498 81.92531041 41.54215452 78.0011081 41.49787521 74.07676125 C41.48382541 72.59183604 41.47501801 71.10685064 41.47182083 69.62186241 C41.44810788 59.66338757 41.32321471 48.89995169 34.90234375 40.6640625 C25.08463216 32.07608481 12.48679091 30.24867909 0 29 C0 19.43 0 9.86 0 0 Z " fill="#F457A6" transform="translate(370,72)"/>
<path d="M0 0 C25.41 0 50.82 0 77 0 C77 69.96 77 139.92 77 212 C63.14 212 49.28 212 35 212 C35 156.23 35 100.46 35 43 C23.45 43 11.9 43 0 43 C0 28.81 0 14.62 0 0 Z " fill="#F2225A" transform="translate(160,123)"/>
<path d="M0 0 C3.84930318 3.68949456 7.13506123 7.58447447 10.375 11.8125 C16.71378434 19.96145717 23.03932835 27.37414804 31 34 C31.60714844 34.51046875 32.21429688 35.0209375 32.83984375 35.546875 C34.2213884 36.70412181 35.60983943 37.85311753 37 39 C36.32902328 43.19360449 34.1441606 46.40334352 32 50 C25.82532143 46.90052177 21.47924515 42.87135437 16.6875 37.9375 C15.97271484 37.21755859 15.25792969 36.49761719 14.52148438 35.75585938 C11.72857924 32.92083691 9.21397946 30.32096919 7 27 C6.67 65.61 6.34 104.22 6 144 C2.37 144 -1.26 144 -5 144 C-5.495 86.58 -5.495 86.58 -6 28 C-9.63 31.96 -13.26 35.92 -17 40 C-21.17014949 43.87228167 -24.96263891 47.32390192 -30 50 C-31.0055761 48.54550599 -32.00430435 47.08627557 -33 45.625 C-33.8353125 44.40683594 -33.8353125 44.40683594 -34.6875 43.1640625 C-36 41 -36 41 -36 39 C-34.40324822 37.58829235 -32.74486398 36.24600532 -31.0625 34.9375 C-18.60208997 24.91188274 -9.18190529 12.98017546 0 0 Z " fill="#DE31F1" transform="translate(336,160)"/>
<path d="M0 0 C0 3 0 3 -1 6 C-1.03874921 7.66621616 -1.0450286 9.33394172 -1 11 C-2.65 11.33 -4.3 11.66 -6 12 C-6 12.99 -6 13.98 -6 15 C-5.05125 14.79375 -4.1025 14.5875 -3.125 14.375 C-2.09375 14.25125 -1.0625 14.1275 0 14 C0.66 14.66 1.32 15.32 2 16 C-4.17265083 23.23973143 -10.4863828 30.47714086 -19 35 C-20.0055761 33.54550599 -21.00430435 32.08627557 -22 30.625 C-22.556875 29.81289062 -23.11375 29.00078125 -23.6875 28.1640625 C-25 26 -25 26 -25 24 C-23.40324822 22.58829235 -21.74486398 21.24600532 -20.0625 19.9375 C-12.60951035 13.97127148 -5.94144835 7.47472534 0 0 Z " fill="#D835EA" transform="translate(325,175)"/>
<path d="M0 0 C0.99 1.32 1.98 2.64 3 4 C0.71519552 10.58561291 -2.95961582 15.82003876 -9.22265625 19.19921875 C-9.80917969 19.46347656 -10.39570313 19.72773438 -11 20 C-15 14.5 -15 14.5 -15 10 C-14.34 10 -13.68 10 -13 10 C-12.67 9.01 -12.34 8.02 -12 7 C-8.99401842 5.66400819 -6.90852004 4.85654947 -3.625 5.375 C-3.08875 5.58125 -2.5525 5.7875 -2 6 C-1.34 4.02 -0.68 2.04 0 0 Z " fill="#DF2FF3" transform="translate(317,190)"/>
<path d="M0 0 C4.8731149 4.56854522 8.8792892 9.75694849 13 15 C14.33192043 16.66779601 15.66485429 18.33478486 17 20 C14.69 20.66 12.38 21.32 10 22 C9.58013054 24.28836222 9.58013054 24.28836222 10 27 C11.62553283 28.70680947 13.29115995 30.37660195 15 32 C15 32.99 15 33.98 15 35 C13.38957012 33.44395612 11.78690632 31.87987244 10.1875 30.3125 C9.29417969 29.44238281 8.40085937 28.57226562 7.48046875 27.67578125 C5.20985423 25.22637818 3.58588655 22.92414297 2 20 C2.99 19.67 3.98 19.34 5 19 C5.33 19.66 5.66 20.32 6 21 C7.65 20.34 9.3 19.68 11 19 C9.91839859 16.0005907 9.91839859 16.0005907 8 13 C4.99152582 11.77479736 4.99152582 11.77479736 2 11 C1.34 10.01 0.68 9.02 0 8 C0.66 8 1.32 8 2 8 C1.34 5.36 0.68 2.72 0 0 Z " fill="#D33BE3" transform="translate(340,165)"/>
<path d="M0 0 C1.06657015 3.26916519 0.8715707 5.36267981 0.08837891 8.68481445 C-1.43650784 16.43342644 -1.35608376 24.17998778 -1.4140625 32.04296875 C-1.4328108 33.66393478 -1.45238682 35.28489143 -1.4727478 36.90583801 C-1.52368876 41.13561424 -1.56351588 45.36542198 -1.60089111 49.59533691 C-1.6411717 53.92626495 -1.69215325 58.25706624 -1.7421875 62.58789062 C-1.8384953 71.05850659 -1.92304183 79.52918623 -2 88 C-2.66 88 -3.32 88 -4 88 C-4.1546875 89.6396875 -4.1546875 89.6396875 -4.3125 91.3125 C-4.97307727 94.85559629 -5.2027092 95.93243723 -8 98 C-8 93.50842583 -6.7867122 91.07370381 -5 87 C-3.99634146 83.06235554 -3.85906539 79.32841997 -3.82641602 75.27294922 C-3.819729 74.61689194 -3.81304199 73.96083466 -3.80615234 73.28489685 C-3.79215585 71.86629931 -3.78024486 70.44767997 -3.77020454 69.02904892 C-3.75368152 66.77401632 -3.73043627 64.51914286 -3.70530701 62.26419067 C-3.63486851 55.85459459 -3.57471915 49.44493175 -3.52319336 43.03515625 C-3.49114119 39.10649883 -3.44979842 35.17802357 -3.40299797 31.24951553 C-3.38712881 29.76261847 -3.374739 28.27567958 -3.36609077 26.78872299 C-3.2464053 6.49281061 -3.2464053 6.49281061 0 0 Z " fill="#DC639D" transform="translate(415,267)"/>
<path d="M0 0 C3.00123713 2.87923562 4.7912334 4.97077802 6 9 C6 10.32 6 11.64 6 13 C4.35 13.66 2.7 14.32 1 15 C0.34 14.01 -0.32 13.02 -1 12 C-1.99 13.485 -1.99 13.485 -3 15 C-3.99 14.67 -4.98 14.34 -6 14 C-6 13.34 -6 12.68 -6 12 C-6.33 12.66 -6.66 13.32 -7 14 C-7.66 14 -8.32 14 -9 14 C-7.45158425 10.65291949 -5.50894136 7.75332488 -3.375 4.75 C-2.74335938 3.85796875 -2.11171875 2.9659375 -1.4609375 2.046875 C-0.73777344 1.03367188 -0.73777344 1.03367188 0 0 Z " fill="#DC33EF" transform="translate(336,160)"/>
<path d="M0 0 C26.4173913 1.27826087 26.4173913 1.27826087 32 5 C14.73989137 5.25890163 14.73989137 5.25890163 7 2 C4.03 1.505 4.03 1.505 1 1 C1.33 9.58 1.66 18.16 2 27 C3.32 26.67 4.64 26.34 6 26 C6.66 26.99 7.32 27.98 8 29 C5.36 29 2.72 29 0 29 C0 19.43 0 9.86 0 0 Z " fill="#DC5E9B" transform="translate(370,72)"/>
<path d="M0 0 C2 1 4 2 6 3 C6 3.66 6 4.32 6 5 C6.99 4.01 7.98 3.02 9 2 C12.16115776 3.36983503 12.9927092 3.9890638 15 7 C14.67 7.66 14.34 8.32 14 9 C20.93 9.495 20.93 9.495 28 10 C28.33 11.32 28.66 12.64 29 14 C18.69480598 12.9694806 7.87203108 8.94363429 0 2 C0 1.34 0 0.68 0 0 Z " fill="#E65DA2" transform="translate(425,224)"/>
<path d="M0 0 C0.99 0.33 1.98 0.66 3 1 C4.36893239 1.05270463 4.36893239 1.05270463 7 0 C9.48887372 4.68493876 8.85687773 7.9444214 8 13 C6.68 12.34 5.36 11.68 4 11 C4 10.34 4 9.68 4 9 C3.360625 8.7525 2.72125 8.505 2.0625 8.25 C0 7 0 7 -0.8125 5.0625 C-1 3 -1 3 0 0 Z " fill="#E32DF8" transform="translate(350,186)"/>
<path d="M0 0 C1.29315061 0.95632999 2.58446853 1.91513851 3.875 2.875 C4.59429687 3.40867188 5.31359375 3.94234375 6.0546875 4.4921875 C8 6 8 6 10 8 C9.69890649 12.06476236 7.03366739 15.58868696 5 19 C-1.875 15.25 -1.875 15.25 -3 13 C1.455 13.99 1.455 13.99 6 15 C6.66 12.69 7.32 10.38 8 8 C7.34 8.66 6.68 9.32 6 10 C6 10.33 6 10.66 6 11 C4.35 11 2.7 11 1 11 C1.33 10.01 1.66 9.02 2 8 C2.66 8 3.32 8 4 8 C3.525625 7.236875 3.05125 6.47375 2.5625 5.6875 C1 3 1 3 0 0 Z " fill="#CA47D8" transform="translate(363,191)"/>
<path d="M0 0 C1.13426792 2.18751669 2.10709518 4.2998665 2.9375 6.625 C3.88458824 9.30799602 3.88458824 9.30799602 7 11 C8.28787023 14.18578426 9 16.5551941 9 20 C9.66 20.33 10.32 20.66 11 21 C10.34 21.99 9.68 22.98 9 24 C3.44169369 17.20651451 -0.44245096 8.94734156 0 0 Z " fill="#E55EA1" transform="translate(413,199)"/>
<path d="M0 0 C0.33 0 0.66 0 1 0 C1.13535156 0.6290625 1.27070312 1.258125 1.41015625 1.90625 C3.43688565 9.96462319 7.03973748 15.30365105 13.9375 20 C14.618125 20.33 15.29875 20.66 16 21 C14 22 14 22 12 22 C11.34 22.33 10.68 22.66 10 23 C9.5875 22.05125 9.175 21.1025 8.75 20.125 C6.9959869 16.99283376 6.29148243 16.13499394 3 15 C3.33 14.01 3.66 13.02 4 12 C2.68 12 1.36 12 0 12 C-0.33 11.01 -0.66 10.02 -1 9 C-0.34 9 0.32 9 1 9 C0.67 6.03 0.34 3.06 0 0 Z M8 22 C8.66 22.66 9.32 23.32 10 24 C9.34 24 8.68 24 8 24 C8 23.34 8 22.68 8 22 Z " fill="#E25E9F" transform="translate(83,350)"/>
<path d="M0 0 C0.66 0 1.32 0 2 0 C2.66 0.66 3.32 1.32 4 2 C5.31747324 2.69748583 6.64914193 3.36959957 8 4 C7.01 4.495 7.01 4.495 6 5 C6 8.63 6 12.26 6 16 C5.34 16 4.68 16 4 16 C3.34 12.7 2.68 9.4 2 6 C1.01 6.66 0.02 7.32 -1 8 C-0.67 5.36 -0.34 2.72 0 0 Z " fill="#D63AE5" transform="translate(328,182)"/>
<path d="M0 0 C-6 4 -6 4 -8.9375 3.8125 C-13.84644683 3.60271595 -17.88750259 5.94671175 -22.23046875 8.00390625 C-25.10889211 9.0391643 -26.21171983 9.11131931 -29 8 C-9.19323105 -0.74539711 -9.19323105 -0.74539711 0 0 Z " fill="#D5619D" transform="translate(106,74)"/>
<path d="M0 0 C0.33 0 0.66 0 1 0 C1.02886338 4.47915328 1.04675187 8.95828291 1.0625 13.4375 C1.07087891 14.71689453 1.07925781 15.99628906 1.08789062 17.31445312 C1.09111328 18.52939453 1.09433594 19.74433594 1.09765625 20.99609375 C1.10289307 22.12200928 1.10812988 23.2479248 1.11352539 24.40795898 C1 27 1 27 0 28 C-1.99958364 28.04080783 -4.00045254 28.04254356 -6 28 C-5.67 27.34 -5.34 26.68 -5 26 C-3.68 26 -2.36 26 -1 26 C-0.67 17.42 -0.34 8.84 0 0 Z " fill="#D06498" transform="translate(492,225)"/>
<path d="M0 0 C0.99 1.32 1.98 2.64 3 4 C1.66666667 6 0.33333333 8 -1 10 C-3.31 9.67 -5.62 9.34 -8 9 C-8 7.68 -8 6.36 -8 5 C-5.03 5.495 -5.03 5.495 -2 6 C-1.34 4.02 -0.68 2.04 0 0 Z " fill="#E52CFA" transform="translate(317,190)"/>
<path d="M0 0 C0.99 0.33 1.98 0.66 3 1 C3.33 1.99 3.66 2.98 4 4 C5.2684375 5.2375 5.2684375 5.2375 6.5625 6.5 C9 9 9 9 9 12 C8.67 12.66 8.34 13.32 8 14 C7.34 14 6.68 14 6 14 C4.99515796 12.04414675 3.99626195 10.08523763 3 8.125 C2.1646875 6.48917969 2.1646875 6.48917969 1.3125 4.8203125 C0 2 0 2 0 0 Z " fill="#EA5DA2" transform="translate(406,113)"/>
<path d="M0 0 C0 0.66 0 1.32 0 2 C-1.0725 2.4125 -2.145 2.825 -3.25 3.25 C-5.88124916 4.35427927 -7.08117937 5.083567 -9.125 7.1875 C-11 9 -11 9 -13.75 9.25 C-14.4925 9.1675 -15.235 9.085 -16 9 C-12.0451436 4.40726353 -6.35854296 0 0 0 Z " fill="#DE609C" transform="translate(442,243)"/>
<path d="M0 0 C6.22078852 3.20464863 12.0616621 8.57238584 15 15 C14.67 15.66 14.34 16.32 14 17 C13.67 16.01 13.34 15.02 13 14 C12.34 14 11.68 14 11 14 C10.566875 13.236875 10.13375 12.47375 9.6875 11.6875 C7.78837283 8.66296413 6.01163964 7.79070465 3 6 C3 5.01 3 4.02 3 3 C2.01 2.67 1.02 2.34 0 2 C0 1.34 0 0.68 0 0 Z " fill="#D5649A" transform="translate(424,87)"/>
<path d="M0 0 C0.33 0.99 0.66 1.98 1 3 C-1.51833083 5.56307274 -4.03003017 7.96679484 -7 10 C-10.5 9.9375 -10.5 9.9375 -13 9 C-10.15118272 6.82418313 -7.23915912 4.79062001 -4.25 2.8125 C-3.45078125 2.28269531 -2.6515625 1.75289063 -1.828125 1.20703125 C-1.22484375 0.80871094 -0.6215625 0.41039062 0 0 Z " fill="#E55E9D" transform="translate(405,364)"/>
<path d="M0 0 C0 4.10746566 -1.63960436 5.19754861 -4.375 8.1875 C-5.18710938 9.08855469 -5.99921875 9.98960937 -6.8359375 10.91796875 C-9 13 -9 13 -11 13 C-11.33 12.01 -11.66 11.02 -12 10 C-11.05125 9.54625 -10.1025 9.0925 -9.125 8.625 C-5.99686321 7.19761746 -5.99686321 7.19761746 -4 5 C-3.855625 4.319375 -3.71125 3.63875 -3.5625 2.9375 C-3.376875 2.298125 -3.19125 1.65875 -3 1 C-2.01 0.67 -1.02 0.34 0 0 Z " fill="#DE609C" transform="translate(76,215)"/>
<path d="M0 0 C0 2 0 2 -2.5625 4.75 C-4.19921875 6.08984375 -4.19921875 6.08984375 -6 7 C-9.875 6.3125 -9.875 6.3125 -13 5 C-10.79970166 2.79970166 -9.4218744 2.31417391 -6.5 1.375 C-5.30890625 0.98441406 -5.30890625 0.98441406 -4.09375 0.5859375 C-2 0 -2 0 0 0 Z " fill="#E65E9F" transform="translate(456,238)"/>
<path d="M0 0 C-3.16566573 2.11044382 -5.51197415 2.75552077 -9.1875 3.625 C-10.27417969 3.88539063 -11.36085937 4.14578125 -12.48046875 4.4140625 C-13.31191406 4.60742188 -14.14335938 4.80078125 -15 5 C-15 4.34 -15 3.68 -15 3 C-9.55326697 -0.29633454 -6.25490443 -1.56372611 0 0 Z " fill="#DF609A" transform="translate(56,233)"/>
<path d="M0 0 C0.99 0.33 1.98 0.66 3 1 C0.03 3.64 -2.94 6.28 -6 9 C-10 5 -10 5 -11 2 C-10.34 2 -9.68 2 -9 2 C-8.67 3.32 -8.34 4.64 -8 6 C-6.68 6 -5.36 6 -4 6 C-4 5.34 -4 4.68 -4 4 C-3.34 4 -2.68 4 -2 4 C-2 3.34 -2 2.68 -2 2 C-1.34 2 -0.68 2 0 2 C0 1.34 0 0.68 0 0 Z " fill="#C74FD4" transform="translate(313,201)"/>
<path d="M0 0 C1.33897583 0.95043374 2.67105427 1.91059147 4 2.875 C5.11375 3.67550781 5.11375 3.67550781 6.25 4.4921875 C6.8275 4.98976562 7.405 5.48734375 8 6 C8 6.66 8 7.32 8 8 C7.34 8.66 6.68 9.32 6 10 C6 10.33 6 10.66 6 11 C4.35 11 2.7 11 1 11 C1.33 10.01 1.66 9.02 2 8 C2.66 8 3.32 8 4 8 C3.525625 7.236875 3.05125 6.47375 2.5625 5.6875 C1 3 1 3 0 0 Z " fill="#D13CDF" transform="translate(363,191)"/>
<path d="M0 0 C0.33 0 0.66 0 1 0 C1.19335563 5.51063545 0.70215337 9.69328656 -1 15 C-1.35371498 16.66246041 -1.69595322 18.32774271 -2 20 C-3.32 20 -4.64 20 -6 20 C-5.731875 19.34 -5.46375 18.68 -5.1875 18 C-4.795625 17.01 -4.40375 16.02 -4 15 C-3.74734375 14.38382813 -3.4946875 13.76765625 -3.234375 13.1328125 C-1.48412708 8.72287411 -0.49175201 4.72081926 0 0 Z " fill="#DB639F" transform="translate(48,192)"/>
<path d="M0 0 C3.01305957 0.38878188 4.39685311 1.26456874 7 3 C1.7265625 6.22265625 1.7265625 6.22265625 0 7 C-0.66 6.67 -1.32 6.34 -2 6 C-1.34 5.34 -0.68 4.68 0 4 C-0.66 3.34 -1.32 2.68 -2 2 C-1.34 1.34 -0.68 0.68 0 0 Z " fill="#E75EA0" transform="translate(58,226)"/>
<path d="M0 0 C0.33 0 0.66 0 1 0 C1.33 3.63 1.66 7.26 2 11 C3.32 10.67 4.64 10.34 6 10 C6.99 11.485 6.99 11.485 8 13 C5.36 13 2.72 13 0 13 C0 8.71 0 4.42 0 0 Z " fill="#E066A1" transform="translate(370,88)"/>
<path d="M0 0 C0.33 0 0.66 0 1 0 C1.33 4.95 1.66 9.9 2 15 C1.01 15.33 0.02 15.66 -1 16 C-1.02725341 14.2709226 -1.04650987 12.54171824 -1.0625 10.8125 C-1.07410156 9.84957031 -1.08570313 8.88664062 -1.09765625 7.89453125 C-1.00486622 5.14423487 -0.62111685 2.67520409 0 0 Z " fill="#DA609E" transform="translate(50,116)"/>
<path d="M0 0 C0.33 0.99 0.66 1.98 1 3 C-3.86051596 5.59227518 -8.65271133 5.18689553 -14 5 C-14 4.67 -14 4.34 -14 4 C-13.15695313 3.79503906 -12.31390625 3.59007812 -11.4453125 3.37890625 C-10.34960938 3.10949219 -9.25390625 2.84007812 -8.125 2.5625 C-7.03445312 2.29566406 -5.94390625 2.02882812 -4.8203125 1.75390625 C-2.07515279 1.1213522 -2.07515279 1.1213522 0 0 Z " fill="#E2609D" transform="translate(32,218)"/>
<path d="M0 0 C3.59634744 3.49359465 6.83451967 7.11098131 10 11 C8.68 11 7.36 11 6 11 C4.375 8.5625 4.375 8.5625 3 6 C2.34 5.67 1.68 5.34 1 5 C0.375 2.4375 0.375 2.4375 0 0 Z " fill="#CA42D9" transform="translate(345,172)"/>
<path d="M0 0 C3.3 0 6.6 0 10 0 C4.75555556 3.93333333 4.75555556 3.93333333 2 5 C1.01 4.67 0.02 4.34 -1 4 C-0.67 2.68 -0.34 1.36 0 0 Z " fill="#E25F9F" transform="translate(410,393)"/>
<path d="M0 0 C0 3 0 3 -2.25 5.4375 C-3.1575 6.283125 -4.065 7.12875 -5 8 C-6.1446875 9.1446875 -6.1446875 9.1446875 -7.3125 10.3125 C-7.869375 10.869375 -8.42625 11.42625 -9 12 C-9.66 11.67 -10.32 11.34 -11 11 C-7.37 7.37 -3.74 3.74 0 0 Z " fill="#C943D7" transform="translate(319,182)"/>
<path d="M0 0 C0.91058531 3.07322544 1.08886184 5.80097361 1 9 C0.01 8.67 -0.98 8.34 -2 8 C-2 7.34 -2 6.68 -2 6 C-2.33 6.66 -2.66 7.32 -3 8 C-3.66 8 -4.32 8 -5 8 C-3.62845496 5.04590299 -2.01136276 2.55991624 0 0 Z " fill="#D43BE3" transform="translate(332,166)"/>
<path d="M0 0 C2.64 1.98 5.28 3.96 8 6 C4.23375329 7.25541557 2.62811066 6.37061958 -1 5 C-0.67 3.35 -0.34 1.7 0 0 Z " fill="#E260A0" transform="translate(451,210)"/>
<path d="M0 0 C0.66 0 1.32 0 2 0 C0.79157144 4.43090471 -0.51668565 6.98112756 -4 10 C-3.67 7.69 -3.34 5.38 -3 3 C-2.34 3 -1.68 3 -1 3 C-0.67 2.01 -0.34 1.02 0 0 Z " fill="#DE629B" transform="translate(439,370)"/>
<path d="M0 0 C-0.33 0.99 -0.66 1.98 -1 3 C-1.66 3 -2.32 3 -3 3 C-3.33 4.32 -3.66 5.64 -4 7 C-4.66 6.67 -5.32 6.34 -6 6 C-6.33 6.99 -6.66 7.98 -7 9 C-7.33 7.68 -7.66 6.36 -8 5 C-2.25 0 -2.25 0 0 0 Z " fill="#C648D4" transform="translate(308,194)"/>
<path d="M0 0 C-6 4 -6 4 -9.1875 3.625 C-10.115625 3.41875 -11.04375 3.2125 -12 3 C-8.48214012 -0.51785988 -4.80656342 -0.10924008 0 0 Z " fill="#E260A0" transform="translate(106,74)"/>
<path d="M0 0 C2 3.75 2 3.75 2 6 C2.66 6.33 3.32 6.66 4 7 C3.34 7 2.68 7 2 7 C2 9.31 2 11.62 2 14 C1.67 14 1.34 14 1 14 C-0.20568053 9.32798795 -0.09382426 4.78503708 0 0 Z " fill="#D8619E" transform="translate(49,347)"/>
<path d="M0 0 C0.66 0 1.32 0 2 0 C2.33 2.97 2.66 5.94 3 9 C0.9375 7.3125 0.9375 7.3125 -1 5 C-0.75 2.25 -0.75 2.25 0 0 Z " fill="#E55BA3" transform="translate(442,114)"/>
<path d="M0 0 C-0.66 1.65 -1.32 3.3 -2 5 C-3.32 5 -4.64 5 -6 5 C-6 5.66 -6 6.32 -6 7 C-6.66 7 -7.32 7 -8 7 C-6.76759083 3.3027725 -4.20634615 0 0 0 Z " fill="#DF649E" transform="translate(71,87)"/>
<path d="M0 0 C0.66 0 1.32 0 2 0 C2 0.66 2 1.32 2 2 C3.32 2.33 4.64 2.66 6 3 C6 5.31 6 7.62 6 10 C3.47650757 6.87567603 1.72743854 3.61939504 0 0 Z " fill="#DB639E" transform="translate(41,264)"/>
<path d="M0 0 C1.051875 0.433125 1.051875 0.433125 2.125 0.875 C5.05452503 2.02133588 8.00921653 3.02625654 11 4 C9.25 5.125 9.25 5.125 7 6 C4.75 5.125 4.75 5.125 3 4 C3 3.34 3 2.68 3 2 C2.01 2 1.02 2 0 2 C0 1.34 0 0.68 0 0 Z " fill="#DC5E9D" transform="translate(459,217)"/>
<path d="M0 0 C4.8 2.46153846 4.8 2.46153846 5.8125 5.1875 C5.874375 5.785625 5.93625 6.38375 6 7 C5.01 6.67 4.02 6.34 3 6 C3 5.01 3 4.02 3 3 C2.01 2.67 1.02 2.34 0 2 C0 1.34 0 0.68 0 0 Z " fill="#DF5F9E" transform="translate(424,87)"/>
<path d="M0 0 C4.21912747 0.4794463 6.79663178 1.16625119 10 4 C5.74357648 4.3648363 3.46444495 3.47460354 0 1 C0 0.67 0 0.34 0 0 Z " fill="#DB609A" transform="translate(403,77)"/>
</svg>
